<mxfile host="Electron" agent="Mozilla/5.0 (X11; Linux x86_64) AppleWebKit/537.36 (KHTML, like Gecko) draw.io/27.0.9 Chrome/134.0.6998.205 Electron/35.4.0 Safari/537.36" version="27.0.9">
  <diagram name="Page-1" id="-3vU0a0_ZYjPw1dA8Azf">
    <mxGraphModel dx="1426" dy="840" grid="1" gridSize="10" guides="1" tooltips="1" connect="1" arrows="1" fold="1" page="1" pageScale="1" pageWidth="850" pageHeight="1100" math="0" shadow="0">
      <root>
        <mxCell id="0" />
        <mxCell id="1" parent="0" />
        <mxCell id="LYF6spQX2Y1GT8F5njz2-20" value="" style="rounded=1;whiteSpace=wrap;html=1;arcSize=1;fillColor=#e1d5e7;strokeColor=#9673a6;" vertex="1" parent="1">
          <mxGeometry x="10" y="10" width="580" height="662" as="geometry" />
        </mxCell>
        <mxCell id="LYF6spQX2Y1GT8F5njz2-3" value="host KVM" style="rounded=1;whiteSpace=wrap;html=1;arcSize=12;verticalAlign=top;" vertex="1" parent="1">
          <mxGeometry x="20" y="130" width="220" height="510" as="geometry" />
        </mxCell>
        <mxCell id="LYF6spQX2Y1GT8F5njz2-10" style="edgeStyle=orthogonalEdgeStyle;rounded=0;orthogonalLoop=1;jettySize=auto;html=1;entryX=0;entryY=0.25;entryDx=0;entryDy=0;endArrow=none;startFill=0;" edge="1" parent="1" source="LYF6spQX2Y1GT8F5njz2-1" target="LYF6spQX2Y1GT8F5njz2-7">
          <mxGeometry relative="1" as="geometry">
            <Array as="points">
              <mxPoint x="180" y="360" />
              <mxPoint x="180" y="165" />
            </Array>
          </mxGeometry>
        </mxCell>
        <mxCell id="LYF6spQX2Y1GT8F5njz2-13" style="edgeStyle=orthogonalEdgeStyle;rounded=0;orthogonalLoop=1;jettySize=auto;html=1;endArrow=none;startFill=0;" edge="1" parent="1" source="LYF6spQX2Y1GT8F5njz2-1" target="LYF6spQX2Y1GT8F5njz2-12">
          <mxGeometry relative="1" as="geometry">
            <mxPoint x="200" y="450" as="targetPoint" />
            <Array as="points">
              <mxPoint x="70" y="380" />
            </Array>
          </mxGeometry>
        </mxCell>
        <mxCell id="LYF6spQX2Y1GT8F5njz2-1" value="fw&lt;div&gt;guest de KVM&lt;/div&gt;" style="image;html=1;image=img/lib/clip_art/computers/Server_Tower_128x128.png" vertex="1" parent="1">
          <mxGeometry x="90" y="320" width="80" height="80" as="geometry" />
        </mxCell>
        <mxCell id="LYF6spQX2Y1GT8F5njz2-21" style="rounded=0;orthogonalLoop=1;jettySize=auto;html=1;endArrow=none;startFill=0;dashed=1;entryX=0.133;entryY=1;entryDx=0;entryDy=0;entryPerimeter=0;" edge="1" parent="1" source="LYF6spQX2Y1GT8F5njz2-2" target="LYF6spQX2Y1GT8F5njz2-16">
          <mxGeometry relative="1" as="geometry" />
        </mxCell>
        <mxCell id="LYF6spQX2Y1GT8F5njz2-2" value="fw01&lt;div&gt;2 x ethernet, donde:&lt;/div&gt;&lt;div&gt;- 1x a WAN, nombre enp1s0;&amp;nbsp;&lt;/div&gt;&lt;div&gt;- 1x a LAN, nombre enp9s0&lt;/div&gt;" style="shape=note;whiteSpace=wrap;html=1;backgroundOutline=1;darkOpacity=0.05;align=left;verticalAlign=top;" vertex="1" parent="1">
          <mxGeometry x="310" y="280" width="260" height="80" as="geometry" />
        </mxCell>
        <mxCell id="LYF6spQX2Y1GT8F5njz2-4" value="bridge: br0" style="text;html=1;align=center;verticalAlign=middle;whiteSpace=wrap;rounded=0;" vertex="1" parent="1">
          <mxGeometry x="250" y="120" width="60" height="30" as="geometry" />
        </mxCell>
        <mxCell id="LYF6spQX2Y1GT8F5njz2-19" style="edgeStyle=orthogonalEdgeStyle;rounded=0;orthogonalLoop=1;jettySize=auto;html=1;endArrow=none;startFill=0;" edge="1" parent="1" source="LYF6spQX2Y1GT8F5njz2-7" target="LYF6spQX2Y1GT8F5njz2-18">
          <mxGeometry relative="1" as="geometry" />
        </mxCell>
        <mxCell id="LYF6spQX2Y1GT8F5njz2-7" value="" style="rounded=0;whiteSpace=wrap;html=1;fillColor=#dae8fc;strokeColor=#6c8ebf;" vertex="1" parent="1">
          <mxGeometry x="220" y="150" width="30" height="60" as="geometry" />
        </mxCell>
        <mxCell id="LYF6spQX2Y1GT8F5njz2-9" style="edgeStyle=orthogonalEdgeStyle;rounded=0;orthogonalLoop=1;jettySize=auto;html=1;entryX=1;entryY=0.25;entryDx=0;entryDy=0;endArrow=none;startFill=0;" edge="1" parent="1" source="LYF6spQX2Y1GT8F5njz2-8" target="LYF6spQX2Y1GT8F5njz2-12">
          <mxGeometry relative="1" as="geometry">
            <Array as="points">
              <mxPoint x="208" y="550" />
            </Array>
          </mxGeometry>
        </mxCell>
        <mxCell id="LYF6spQX2Y1GT8F5njz2-8" value="node01&lt;br&gt;&lt;div&gt;guest de KVM&lt;/div&gt;" style="image;html=1;image=img/lib/clip_art/computers/Server_Tower_128x128.png" vertex="1" parent="1">
          <mxGeometry x="70" y="520" width="80" height="80" as="geometry" />
        </mxCell>
        <mxCell id="LYF6spQX2Y1GT8F5njz2-22" style="rounded=0;orthogonalLoop=1;jettySize=auto;html=1;dashed=1;endArrow=none;startFill=0;entryX=1;entryY=0.75;entryDx=0;entryDy=0;" edge="1" parent="1" source="LYF6spQX2Y1GT8F5njz2-11" target="LYF6spQX2Y1GT8F5njz2-8">
          <mxGeometry relative="1" as="geometry" />
        </mxCell>
        <mxCell id="LYF6spQX2Y1GT8F5njz2-11" value="node01&lt;br&gt;&lt;div&gt;1 x ethernet, donde:&lt;/div&gt;&lt;div&gt;&lt;span style=&quot;background-color: transparent; color: light-dark(rgb(0, 0, 0), rgb(255, 255, 255));&quot;&gt;- 1x a LAN, nombre enp9s0&lt;/span&gt;&lt;/div&gt;" style="shape=note;whiteSpace=wrap;html=1;backgroundOutline=1;darkOpacity=0.05;align=left;verticalAlign=top;" vertex="1" parent="1">
          <mxGeometry x="320" y="490" width="260" height="70" as="geometry" />
        </mxCell>
        <mxCell id="LYF6spQX2Y1GT8F5njz2-12" value="tipo de red KVM: isolate" style="rounded=0;whiteSpace=wrap;html=1;fillColor=#f5f5f5;strokeColor=#666666;rotation=0;fontColor=#333333;" vertex="1" parent="1">
          <mxGeometry x="30" y="460" width="200" height="30" as="geometry" />
        </mxCell>
        <mxCell id="LYF6spQX2Y1GT8F5njz2-14" value="&lt;span style=&quot;text-align: left;&quot;&gt;enp9s0&lt;/span&gt;" style="text;strokeColor=none;align=center;fillColor=none;html=1;verticalAlign=middle;whiteSpace=wrap;rounded=0;" vertex="1" parent="1">
          <mxGeometry x="40" y="350" width="60" height="30" as="geometry" />
        </mxCell>
        <mxCell id="LYF6spQX2Y1GT8F5njz2-16" value="&lt;span style=&quot;text-align: left;&quot;&gt;enp1s0&lt;/span&gt;" style="text;strokeColor=none;align=center;fillColor=none;html=1;verticalAlign=middle;whiteSpace=wrap;rounded=0;" vertex="1" parent="1">
          <mxGeometry x="160" y="360" width="60" height="30" as="geometry" />
        </mxCell>
        <mxCell id="LYF6spQX2Y1GT8F5njz2-17" value="&lt;span style=&quot;text-align: left;&quot;&gt;enp1s0&lt;/span&gt;" style="text;strokeColor=none;align=center;fillColor=none;html=1;verticalAlign=middle;whiteSpace=wrap;rounded=0;" vertex="1" parent="1">
          <mxGeometry x="143" y="550" width="60" height="30" as="geometry" />
        </mxCell>
        <mxCell id="LYF6spQX2Y1GT8F5njz2-18" value="&lt;div&gt;&lt;br&gt;&lt;/div&gt;&lt;div&gt;&lt;br&gt;&lt;/div&gt;&lt;div&gt;172.17.17.0/24&lt;/div&gt;" style="shape=mxgraph.signs.tech.ethernet;html=1;pointerEvents=1;fillColor=#000000;strokeColor=none;verticalLabelPosition=bottom;verticalAlign=top;align=center;" vertex="1" parent="1">
          <mxGeometry x="360" y="50" width="99" height="48" as="geometry" />
        </mxCell>
      </root>
    </mxGraphModel>
  </diagram>
</mxfile>
